HIERARCHY
ROOT hip
{
  OFFSET 0 0 0
  CHANNELS 6 Xposition Yposition Zposition Zrotation Yrotation Xrotation
  JOINT abdomen
  {
    OFFSET 0 20.6881 -0.73152
    CHANNELS 3 Zrotation Xrotation Yrotation
    JOINT chest
    {
      OFFSET 0 11.7043 -0.48768
      CHANNELS 3 Zrotation Xrotation Yrotation
      JOINT neck
      {
        OFFSET 0 22.1894 -2.19456
        CHANNELS 3 Zrotation Xrotation Yrotation
        JOINT head
        {
          OFFSET -0.24384 7.07133 1.2192
          CHANNELS 3 Zrotation Xrotation Yrotation
          JOINT leftEye
          {
            OFFSET 4.14528 8.04674 8.04672
            CHANNELS 3 Zrotation Xrotation Yrotation
            End Site
            {
              OFFSET 1 0 0
            }
          }
          JOINT rightEye
          {
            OFFSET -3.6576 8.04674 8.04672
            CHANNELS 3 Zrotation Xrotation Yrotation
            End Site
            {
              OFFSET 1 0 0
            }
          }
        }
      }
      JOINT rCollar
      {
        OFFSET -2.68224 19.2634 -4.8768
        CHANNELS 3 Zrotation Xrotation Yrotation
        JOINT rShldr
        {
          OFFSET -8.77824 -1.95073 1.46304
          CHANNELS 3 Zrotation Xrotation Yrotation
          JOINT rForeArm
          {
            OFFSET -28.1742 -1.7115 0.48768
            CHANNELS 3 Zrotation Xrotation Yrotation
            JOINT rHand
            {
              OFFSET -22.5879 0.773209 7.07136
              CHANNELS 3 Zrotation Xrotation Yrotation
              JOINT rThumb1
              {
                OFFSET -1.2192 -0.487915 3.41376
                CHANNELS 3 Zrotation Xrotation Yrotation
                JOINT rThumb2
                {
                  OFFSET -3.37035 -0.52449 3.41376
                  CHANNELS 3 Zrotation Xrotation Yrotation
                  End Site
                  {
                    OFFSET -1.78271 -1.18214 1.43049
                  }
                }
              }
              JOINT rIndex1
              {
                OFFSET -7.75947 0.938293 5.60832
                CHANNELS 3 Zrotation Xrotation Yrotation
                JOINT rIndex2
                {
                  OFFSET -2.54057 -0.884171 1.56538
                  CHANNELS 3 Zrotation Xrotation Yrotation
                  End Site
                  {
                    OFFSET -1.62519 -0.234802 1.16502
                  }
                }
              }
              JOINT rMid1
              {
                OFFSET -8.24714 1.18213 3.41376
                CHANNELS 3 Zrotation Xrotation Yrotation
                JOINT rMid2
                {
                  OFFSET -3.10165 -0.590103 1.0647
                  CHANNELS 3 Zrotation Xrotation Yrotation
                  End Site
                  {
                    OFFSET -2.48547 -0.328903 0.83742
                  }
                }
              }
              JOINT rRing1
              {
                OFFSET -8.82822 0.546677 1.51678
                CHANNELS 3 Zrotation Xrotation Yrotation
                JOINT rRing2
                {
                  OFFSET -2.60934 -0.819778 -0.0198488
                  CHANNELS 3 Zrotation Xrotation Yrotation
                  End Site
                  {
                    OFFSET -2.33842 -0.294052 0.168128
                  }
                }
              }
              JOINT rPinky1
              {
                OFFSET -8.27202 -0.0477905 -0.4584
                CHANNELS 3 Zrotation Xrotation Yrotation
                JOINT rPinky2
                {
                  OFFSET -1.82734 -0.647385 -0.700984
                  CHANNELS 3 Zrotation Xrotation Yrotation
                  End Site
                  {
                    OFFSET -1.69225 -0.51767 -0.607171
                  }
                }
              }
            }
          }
        }
      }
      JOINT lCollar
      {
        OFFSET 2.68224 19.2634 -4.8768
        CHANNELS 3 Zrotation Xrotation Yrotation
        JOINT lShldr
        {
          OFFSET 8.77824 -1.95073 1.46304
          CHANNELS 3 Zrotation Xrotation Yrotation
          JOINT lForeArm
          {
            OFFSET 28.1742 -1.7115 0.48768
            CHANNELS 3 Zrotation Xrotation Yrotation
            JOINT lHand
            {
              OFFSET 22.5879 0.773209 7.07136
              CHANNELS 3 Zrotation Xrotation Yrotation
              JOINT lThumb1
              {
                OFFSET 1.2192 -0.487915 3.41376
                CHANNELS 3 Zrotation Xrotation Yrotation
                JOINT lThumb2
                {
                  OFFSET 3.37035 -0.52449 3.41376
                  CHANNELS 3 Zrotation Xrotation Yrotation
                  End Site
                  {
                    OFFSET 1.78271 -1.18214 1.43049
                  }
                }
              }
              JOINT lIndex1
              {
                OFFSET 7.75947 0.938293 5.60832
                CHANNELS 3 Zrotation Xrotation Yrotation
                JOINT lIndex2
                {
                  OFFSET 2.54057 -0.884171 1.56538
                  CHANNELS 3 Zrotation Xrotation Yrotation
                  End Site
                  {
                    OFFSET 1.62519 -0.234802 1.16502
                  }
                }
              }
              JOINT lMid1
              {
                OFFSET 8.24714 1.18213 3.41376
                CHANNELS 3 Zrotation Xrotation Yrotation
                JOINT lMid2
                {
                  OFFSET 3.10165 -0.590103 1.0647
                  CHANNELS 3 Zrotation Xrotation Yrotation
                  End Site
                  {
                    OFFSET 2.48547 -0.328903 0.83742
                  }
                }
              }
              JOINT lRing1
              {
                OFFSET 8.82822 0.546677 1.51678
                CHANNELS 3 Zrotation Xrotation Yrotation
                JOINT lRing2
                {
                  OFFSET 2.60934 -0.819778 -0.0198488
                  CHANNELS 3 Zrotation Xrotation Yrotation
                  End Site
                  {
                    OFFSET 2.33842 -0.294052 0.168128
                  }
                }
              }
              JOINT lPinky1
              {
                OFFSET 8.27202 -0.0477905 -0.4584
                CHANNELS 3 Zrotation Xrotation Yrotation
                JOINT lPinky2
                {
                  OFFSET 1.82734 -0.647385 -0.700984
                  CHANNELS 3 Zrotation Xrotation Yrotation
                  End Site
                  {
                    OFFSET 1.69225 -0.51767 -0.607171
                  }
                }
              }
            }
          }
        }
      }
    }
  }
  JOINT rButtock
  {
    OFFSET -8.77824 4.35084 1.2192
    CHANNELS 3 Zrotation Xrotation Yrotation
    JOINT rThigh
    {
      OFFSET 0 -1.70687 -2.19456
      CHANNELS 3 Zrotation Xrotation Yrotation
      JOINT rShin
      {
        OFFSET 0 -36.8199 0.73152
        CHANNELS 3 Zrotation Xrotation Yrotation
        JOINT rFoot
        {
          OFFSET 0.73152 -45.1104 -5.12064
          CHANNELS 3 Zrotation Xrotation Yrotation
          End Site
          {
            OFFSET -1.1221 -3.69964 12.103
          }
        }
      }
    }
  }
  JOINT lButtock
  {
    OFFSET 8.77824 4.35084 1.2192
    CHANNELS 3 Zrotation Xrotation Yrotation
    JOINT lThigh
    {
      OFFSET 0 -1.70687 -2.19456
      CHANNELS 3 Zrotation Xrotation Yrotation
      JOINT lShin
      {
        OFFSET 0 -36.8199 0.73152
        CHANNELS 3 Zrotation Xrotation Yrotation
        JOINT lFoot
        {
          OFFSET -0.73152 -45.1104 -5.12064
          CHANNELS 3 Zrotation Xrotation Yrotation
          End Site
          {
            OFFSET 1.1221 -3.69964 12.103
          }
        }
      }
    }
  }
}
MOTION
Frames:	5
Frame Time:	0.03333
0.18143600318580866 70.94720005989075 -0.0029999999242136255 -1.3205164670944214 3.404310703277588 6.148802280426025 -4.803664207458496 4.860631942749023 3.6640591621398926 2.3371353149414062 -6.446295738220215 1.0363398790359497 -6.087259292602539 10.399772644042969 -4.059752941131592 7.475207805633545 -19.658403396606445 -6.112476825714111 -0.0 0.0 -0.0 -0.0 0.0 -0.0 -0.0 0.0 -0.0 72.57389831542969 41.74999237060547 0.7717111706733704 -17.6748046875 -10.34129810333252 33.29469680786133 -0.0006033916142769158 -0.6989956498146057 -0.09891723841428757 -0.0 0.0 -0.0 -0.0 0.0 -0.0 -0.0 0.0 -0.0 7.73087739944458 5.47489595413208 0.41732463240623474 -0.0 0.0 -0.0 2.9054994583129883 0.9650753736495972 0.10300876200199127 -0.0 0.0 -0.0 10.278595924377441 0.7317469120025635 0.026285577565431595 -0.0 0.0 -0.0 2.221662759780884 -0.7335850596427917 -0.20831839740276337 -0.0 0.0 -0.0 -74.78429412841797 36.955806732177734 -9.116429328918457 12.363224029541016 -5.7068328857421875 -22.31539535522461 1.202709436416626 29.51529884338379 -4.563488006591797 -0.0 0.0 -0.0 -0.0 0.0 -0.0 -0.0 0.0 -0.0 -7.73087739944458 5.47489595413208 -0.41732463240623474 -0.0 0.0 -0.0 -2.9054994583129883 0.9650753736495972 -0.10300876200199127 -0.0 0.0 -0.0 -10.278595924377441 0.7317469120025635 -0.026285577565431595 -0.0 0.0 -0.0 -2.221662759780884 -0.7335850596427917 0.20831839740276337 -0.0 0.0 -0.0 -8.646650314331055 -25.10139274597168 6.24472188949585 -0.23241691291332245 36.05118942260742 0.9618037939071655 -2.1986122131347656 -8.292766571044922 -12.590288162231445 -0.0 0.0 -0.0 6.978466987609863 -19.922603607177734 -4.386651515960693 0.10573771595954895 33.39069747924805 -0.9161896705627441 1.9995746612548828 -8.999279022216797 14.83151912689209
0.356844998896122 71.00750207901001 -0.004999999873689376 -1.4132492542266846 3.137826681137085 6.17548131942749 -4.8026204109191895 4.720034122467041 3.7678258419036865 2.325698137283325 -6.40222692489624 1.0668749809265137 -6.160938739776611 10.357199668884277 -4.121060848236084 7.5292558670043945 -19.413301467895508 -6.226422309875488 -0.0 0.0 -0.0 -0.0 0.0 -0.0 -0.0 0.0 -0.0 72.42428588867188 42.15749740600586 1.1408522129058838 -17.721309661865234 -10.390192985534668 33.39800262451172 -0.0007481852080672979 -0.7783344984054565 -0.11015104502439499 -0.0 0.0 -0.0 -0.0 0.0 -0.0 -0.0 0.0 -0.0 7.73087739944458 5.47489595413208 0.41732463240623474 -0.0 0.0 -0.0 2.9054994583129883 0.9650753736495972 0.10300876200199127 -0.0 0.0 -0.0 10.278595924377441 0.7317469120025635 0.026285577565431595 -0.0 0.0 -0.0 2.221662759780884 -0.7335850596427917 -0.20831839740276337 -0.0 0.0 -0.0 -74.84190368652344 36.63800811767578 -9.034673690795898 12.347994804382324 -5.696188926696777 -22.285795211791992 1.2073825597763062 29.56619644165039 -4.572963237762451 -0.0 0.0 -0.0 -0.0 0.0 -0.0 -0.0 0.0 -0.0 -7.73087739944458 5.47489595413208 -0.41732463240623474 -0.0 0.0 -0.0 -2.9054994583129883 0.9650753736495972 -0.10300876200199127 -0.0 0.0 -0.0 -10.278595924377441 0.7317469120025635 -0.026285577565431595 -0.0 0.0 -0.0 -2.221662759780884 -0.7335850596427917 0.20831839740276337 -0.0 0.0 -0.0 -8.660187721252441 -24.992698669433594 6.393066883087158 -0.22752146422863007 35.68039321899414 0.9485344886779785 -2.141836643218994 -8.12567138671875 -12.479301452636719 -0.0 0.0 -0.0 6.884859561920166 -19.75839614868164 -4.415067672729492 0.10211769491434097 33.21680450439453 -0.9130865335464478 2.041602849960327 -8.933764457702637 15.114395141601562
0.5271509988233447 71.06639742851257 -0.006999999823165126 -1.4841008186340332 2.8628036975860596 6.207318305969238 -4.824606895446777 4.544776916503906 3.852358818054199 2.303095579147339 -6.378046989440918 1.091667890548706 -6.26790189743042 10.392699241638184 -4.234718322753906 7.628661632537842 -19.164691925048828 -6.44019079208374 -0.0 0.0 -0.0 -0.0 0.0 -0.0 -0.0 0.0 -0.0 72.33880615234375 42.60540008544922 1.4253278970718384 -17.750402450561523 -10.420815467834473 33.46279525756836 -0.014786710031330585 -0.8040416836738586 -0.11374745517969131 -0.0 0.0 -0.0 -0.0 0.0 -0.0 -0.0 0.0 -0.0 7.73087739944458 5.47489595413208 0.41732463240623474 -0.0 0.0 -0.0 2.9054994583129883 0.9650753736495972 0.10300876200199127 -0.0 0.0 -0.0 10.278595924377441 0.7317469120025635 0.026285577565431595 -0.0 0.0 -0.0 2.221662759780884 -0.7335850596427917 -0.20831839740276337 -0.0 0.0 -0.0 -74.86129760742188 36.524200439453125 -8.913372039794922 12.347284317016602 -5.695352077484131 -22.284204483032227 1.1812543869018555 29.45107078552246 -4.547360897064209 -0.0 0.0 -0.0 -0.0 0.0 -0.0 -0.0 0.0 -0.0 -7.73087739944458 5.47489595413208 -0.41732463240623474 -0.0 0.0 -0.0 -2.9054994583129883 0.9650753736495972 -0.10300876200199127 -0.0 0.0 -0.0 -10.278595924377441 0.7317469120025635 -0.026285577565431595 -0.0 0.0 -0.0 -2.221662759780884 -0.7335850596427917 0.20831839740276337 -0.0 0.0 -0.0 -8.6796236038208 -24.887290954589844 6.582113265991211 -0.22033396363258362 35.33201217651367 0.9357125163078308 -2.0939996242523193 -7.946437835693359 -12.420805931091309 -0.0 0.0 -0.0 6.786411285400391 -19.597204208374023 -4.395558834075928 0.09918021410703659 33.04800033569336 -0.909973680973053 2.081822156906128 -8.91653823852539 15.324390411376953
0.6850220030173659 71.12079858779907 -0.005999999848427251 -1.521274447441101 2.5993785858154297 6.2468976974487305 -4.860993385314941 4.3602705001831055 3.9176831245422363 2.278747797012329 -6.356388568878174 1.1108351945877075 -6.414005279541016 10.430380821228027 -4.412238121032715 7.763343811035156 -18.879499435424805 -6.772724628448486 -0.0 0.0 -0.0 -0.0 0.0 -0.0 -0.0 0.0 -0.0 72.28810119628906 43.02609634399414 1.6618802547454834 -17.77710723876953 -10.448983192443848 33.52190017700195 0.01319083385169506 -0.8050422072410583 -0.113551065325737 -0.0 0.0 -0.0 -0.0 0.0 -0.0 -0.0 0.0 -0.0 7.73087739944458 5.47489595413208 0.41732463240623474 -0.0 0.0 -0.0 2.9054994583129883 0.9650753736495972 0.10300876200199127 -0.0 0.0 -0.0 10.278595924377441 0.7317469120025635 0.026285577565431595 -0.0 0.0 -0.0 2.221662759780884 -0.7335850596427917 -0.20831839740276337 -0.0 0.0 -0.0 -74.84049224853516 36.477203369140625 -8.821029663085938 12.333800315856934 -5.685472011566162 -22.25779914855957 1.1665534973144531 29.289369583129883 -4.517378330230713 -0.0 0.0 -0.0 -0.0 0.0 -0.0 -0.0 0.0 -0.0 -7.73087739944458 5.47489595413208 -0.41732463240623474 -0.0 0.0 -0.0 -2.9054994583129883 0.9650753736495972 -0.10300876200199127 -0.0 0.0 -0.0 -10.278595924377441 0.7317469120025635 -0.026285577565431595 -0.0 0.0 -0.0 -2.221662759780884 -0.7335850596427917 0.20831839740276337 -0.0 0.0 -0.0 -8.69677734375 -24.79509735107422 6.794335842132568 -0.22038236260414124 35.011192321777344 0.9265342354774475 -2.0534827709198 -7.773342132568359 -12.39168643951416 -0.0 0.0 -0.0 6.691521167755127 -19.448102951049805 -4.349613189697266 0.09785884618759155 32.89468765258789 -0.9076395630836487 2.1208386421203613 -8.921631813049316 15.49630355834961
0.825185002759099 71.16829752922058 0.009999999747378752 -1.547849416732788 2.33681058883667 6.2902913093566895 -4.918430328369141 4.190099239349365 3.9618356227874756 2.2629165649414062 -6.325848579406738 1.1230038404464722 -6.609097003936768 10.387609481811523 -4.676079750061035 7.92906379699707 -18.499095916748047 -7.263525009155273 -0.0 0.0 -0.0 -0.0 0.0 -0.0 -0.0 0.0 -0.0 72.260498046875 43.3423957824707 1.8729501962661743 -17.81450653076172 -10.488600730895996 33.60529708862305 -0.0007757145212963223 -0.7942613363265991 -0.11191389709711075 -0.0 0.0 -0.0 -0.0 0.0 -0.0 -0.0 0.0 -0.0 7.73087739944458 5.47489595413208 0.41732463240623474 -0.0 0.0 -0.0 2.9054994583129883 0.9650753736495972 0.10300876200199127 -0.0 0.0 -0.0 10.278595924377441 0.7317469120025635 0.026285577565431595 -0.0 0.0 -0.0 2.221662759780884 -0.7335850596427917 -0.20831839740276337 -0.0 0.0 -0.0 -74.74530029296875 36.384891510009766 -8.868806838989258 12.255895614624023 -5.629783630371094 -22.105995178222656 1.1731276512145996 29.18999671936035 -4.503155708312988 -0.0 0.0 -0.0 -0.0 0.0 -0.0 -0.0 0.0 -0.0 -7.73087739944458 5.47489595413208 -0.41732463240623474 -0.0 0.0 -0.0 -2.9054994583129883 0.9650753736495972 -0.10300876200199127 -0.0 0.0 -0.0 -10.278595924377441 0.7317469120025635 -0.026285577565431595 -0.0 0.0 -0.0 -2.221662759780884 -0.7335850596427917 0.20831839740276337 -0.0 0.0 -0.0 -8.712234497070312 -24.736398696899414 7.016181468963623 -0.21686972677707672 34.738285064697266 0.9180498123168945 -2.021233558654785 -7.625513076782227 -12.37899398803711 -0.0 0.0 -0.0 6.602346420288086 -19.326505661010742 -4.2965545654296875 0.09623918682336807 32.763492584228516 -0.9057766199111938 2.15789794921875 -8.9429349899292 15.642400741577148
